# xmcd
#
# Track frame offsets: 
#        183
#        9108
#        18288
#        31830
#        46088
#        57373
#        71168
#        80725
#        90975
#        102630
#        111803
#
# Disc length: 1647 seconds
#
# Revision: 0
# Processed by: cddbd v1.5.1PL0 Copyright (c) Steve Scherf et al.
# Submitted via: ExactAudioCopy v0.95a4
#
DISCID=7f066d0b
DTITLE=Jerry Lee Lewis - The Golden Cream of the Country
DYEAR=1969
DGENRE=Country
TTITLE0=Invitation to Your Party
TTITLE1=Jambalaya
TTITLE2=Ramblin' Rose
TTITLE3=Cold, Cold Heart
TTITLE4=As Long As I Live
TTITLE5=Seasons of My Heart
TTITLE6=One Minute Past Eternity
TTITLE7=I Can't Trust Me in Your Arms Anymore
TTITLE8=Franky and Johnny
TTITLE9=Home
TTITLE10=How's My Ex Treating You
EXTD=
EXTT0=
EXTT1=
EXTT2=
EXTT3=
EXTT4=
EXTT5=
EXTT6=
EXTT7=
EXTT8=
EXTT9=
EXTT10=
PLAYORDER=
